# Blender v3.0.0 OBJ File: 'palo.blend'
# www.blender.org
mtllib AnuncsNegro.mtl
o Cube
v 0.500000 0.500000 -0.500000
v 0.500000 -0.500000 -0.500000
v 0.500000 0.500000 0.500000
v 0.500000 -0.500000 0.500000
v -0.500000 0.500000 -0.500000
v -0.500000 -0.500000 -0.500000
v -0.500000 0.500000 0.500000
v -0.500000 -0.500000 0.500000
v 0.500000 60.500000 0.500000
v -0.500000 60.500000 0.500000
v 0.500000 60.500000 -0.500000
v -0.500000 60.500000 -0.500000
v -0.500000 59.449997 -0.500000
v 0.500000 59.449997 -0.500000
v 0.500000 59.449997 0.500000
v -0.500000 59.449997 0.500000
v 15.500000 60.500000 -0.500000
v 15.500000 60.500000 0.500000
v 15.500000 59.449997 0.500000
v 15.500000 59.449997 -0.500000
v 0.500000 29.974998 -0.500000
v -0.500000 29.974998 0.500000
v -0.500000 29.974998 -0.500000
v 0.500000 29.974998 0.500000
v -0.500000 44.712498 -0.500000
v 0.500000 44.712498 0.500000
v 0.500000 44.712498 -0.500000
v -0.500000 44.712498 0.500000
v -0.500000 59.974998 -0.500000
v 0.500000 59.974998 0.500000
v 0.500000 59.974998 -0.500000
v -0.500000 59.974998 0.500000
v 15.500000 59.974998 0.500000
v 15.500000 59.974998 -0.500000
v 0.500000 31.080311 -0.500000
v -0.500000 31.080311 0.500000
v -0.500000 31.080311 -0.500000
v 0.500000 31.080311 0.500000
v 15.500000 31.080311 -0.500000
v 15.500000 29.974998 -0.500000
v 15.500000 29.974998 0.500000
v 15.500000 31.080311 0.500000
vt 0.252384 0.978854
vt 0.268360 0.978854
vt 0.268360 0.987241
vt 0.252384 0.987241
vt 0.533504 0.987244
vt 0.533504 0.971268
vt 0.549480 0.971268
vt 0.549480 0.987244
vt 0.590974 0.012759
vt 0.590974 0.028734
vt 0.574998 0.028734
vt 0.574998 0.012759
vt 0.616492 0.610585
vt 0.632467 0.610585
vt 0.632467 0.626560
vt 0.616492 0.626560
vt 0.632467 0.012759
vt 0.632467 0.028734
vt 0.616492 0.028734
vt 0.616492 0.012759
vt 0.268360 0.012759
vt 0.268360 0.028734
vt 0.252384 0.028734
vt 0.252384 0.012759
vt 0.715452 0.252384
vt 0.715452 0.268360
vt 0.699477 0.268360
vt 0.699477 0.252384
vt 0.549480 0.021149
vt 0.533504 0.021149
vt 0.533504 0.012756
vt 0.549480 0.012756
vt 0.574998 0.978854
vt 0.590973 0.978854
vt 0.590973 0.987241
vt 0.574998 0.987241
vt 0.699477 0.012760
vt 0.715452 0.012760
vt 0.657984 0.230534
vt 0.673959 0.230534
vt 0.673959 0.465969
vt 0.657984 0.465969
vt 0.574998 0.735034
vt 0.590973 0.735034
vt 0.590973 0.970467
vt 0.574998 0.970467
vt 0.549480 0.264969
vt 0.533504 0.264969
vt 0.533504 0.029533
vt 0.549480 0.029533
vt 0.252384 0.735034
vt 0.268360 0.735034
vt 0.268360 0.970467
vt 0.252384 0.970467
vt 0.616492 0.576683
vt 0.632467 0.576683
vt 0.632467 0.585068
vt 0.616492 0.585068
vt 0.657984 0.491486
vt 0.673959 0.491486
vt 0.673959 0.731113
vt 0.657984 0.731113
vt 0.293880 0.029533
vt 0.293880 0.021149
vt 0.012760 0.987241
vt 0.012760 0.978854
vt 0.268360 0.499601
vt 0.252384 0.499601
vt 0.533504 0.500397
vt 0.549480 0.500397
vt 0.590973 0.499601
vt 0.574998 0.499601
vt 0.632467 0.499601
vt 0.616492 0.499601
vt 0.252384 0.517258
vt 0.268360 0.517258
vt 0.549480 0.482742
vt 0.533504 0.482742
vt 0.574998 0.517258
vt 0.590973 0.517258
vt 0.657984 0.012760
vt 0.673959 0.012760
vt 0.012760 0.970467
vt 0.293880 0.012756
vt 0.616492 0.568291
vt 0.632467 0.568291
vt 0.715452 0.533504
vt 0.699477 0.533504
vt 0.699477 0.293880
vt 0.715452 0.293880
vt 0.616492 0.525120
vt 0.632467 0.525120
vt 0.632467 0.542774
vt 0.616492 0.542774
vt 0.012760 0.517258
vt 0.012760 0.499601
vt 0.293880 0.500397
vt 0.293880 0.482742
vt 0.740970 0.012759
vt 0.756945 0.012759
vt 0.756945 0.252386
vt 0.740970 0.252386
vn 0.0000 0.0000 -1.0000
vn 0.0000 0.0000 1.0000
vn -1.0000 0.0000 0.0000
vn 0.0000 -1.0000 0.0000
vn 1.0000 0.0000 0.0000
vn 0.0000 1.0000 0.0000
usemtl Material
s off
f 31/1/1 29/2/1 12/3/1 11/4/1
f 4/5/2 3/6/2 7/7/2 8/8/2
f 8/9/3 7/10/3 5/11/3 6/12/3
f 6/13/4 2/14/4 4/15/4 8/16/4
f 2/17/5 1/18/5 3/19/5 4/20/5
f 6/21/1 5/22/1 1/23/1 2/24/1
f 11/25/6 12/26/6 10/27/6 9/28/6
f 32/29/2 30/30/2 9/31/2 10/32/2
f 29/33/3 32/34/3 10/35/3 12/36/3
f 11/25/6 9/28/6 18/37/6 17/38/6
f 26/39/5 27/40/5 14/41/5 15/42/5
f 25/43/3 28/44/3 16/45/3 13/46/3
f 28/47/2 26/48/2 15/49/2 16/50/2
f 27/51/1 25/52/1 13/53/1 14/54/1
f 33/55/5 34/56/5 17/57/5 18/58/5
f 15/59/4 14/60/4 20/61/4 19/62/4
f 30/30/2 15/49/2 19/63/2 33/64/2
f 31/1/1 11/4/1 17/65/1 34/66/1
f 1/23/1 5/22/1 23/67/1 21/68/1
f 7/7/2 3/6/2 24/69/2 22/70/2
f 5/11/3 7/10/3 22/71/3 23/72/3
f 3/19/5 1/18/5 21/73/5 24/74/5
f 35/75/1 37/76/1 25/52/1 27/51/1
f 36/77/2 38/78/2 26/48/2 28/47/2
f 37/79/3 36/80/3 28/44/3 25/43/3
f 38/81/5 35/82/5 27/40/5 26/39/5
f 14/54/1 31/1/1 34/66/1 20/83/1
f 9/31/2 30/30/2 33/64/2 18/84/2
f 19/85/5 20/86/5 34/56/5 33/55/5
f 13/46/3 16/45/3 32/34/3 29/33/3
f 16/50/2 15/49/2 30/30/2 32/29/2
f 14/54/1 13/53/1 29/2/1 31/1/1
f 35/87/6 38/88/6 42/89/6 39/90/6
f 23/72/3 22/71/3 36/80/3 37/79/3
f 22/70/2 24/69/2 38/78/2 36/77/2
f 21/68/1 23/67/1 37/76/1 35/75/1
f 41/91/5 40/92/5 39/93/5 42/94/5
f 21/68/1 35/75/1 39/95/1 40/96/1
f 38/78/2 24/69/2 41/97/2 42/98/2
f 24/99/4 21/100/4 40/101/4 41/102/4
o Plane
v 1.600460 29.791214 0.526197
v 14.308268 60.500000 0.526198
v 1.600460 60.500000 0.526198
v 14.308268 29.791214 0.526197
v 1.600460 60.500000 0.126198
v 1.600460 29.791214 0.126197
v 14.308268 29.791214 0.126197
v 14.308268 60.500000 0.126198
vt -0.080678 0.172557
vt -0.080677 0.751956
vt 1.114164 0.751956
vt 1.114164 0.172557
vt -0.097421 0.202795
vt 1.097421 0.202795
vt 1.097421 0.782194
vt -0.097420 0.782194
vt 1.097421 0.782194
vt -0.097420 0.782194
vt -0.097421 0.202795
vt 1.097421 0.202795
vn 0.0000 0.0000 -1.0000
vn 0.0000 -0.0000 1.0000
vn 0.0000 -1.0000 0.0000
vn 1.0000 -0.0000 0.0000
vn -1.0000 0.0000 0.0000
vn 0.0000 1.0000 0.0000
usemtl TelaNegra
s off
f 43/103/7 45/104/7 44/105/7 46/106/7
f 48/107/8 49/108/8 50/109/8 47/110/8
f 44/111/9 45/112/9 47/110/9 50/109/9
f 45/112/10 43/113/10 48/107/10 47/110/10
f 46/114/11 44/111/11 50/109/11 49/108/11
f 43/113/12 46/114/12 49/108/12 48/107/12
